<?xml version="1.0" standalone="no"?>
<!DOCTYPE svg PUBLIC "-//W3C//DTD SVG 20010904//EN"
 "http://www.w3.org/TR/2001/REC-SVG-20010904/DTD/svg10.dtd">
<svg version="1.0" xmlns="http://www.w3.org/2000/svg"
 width="512.000000pt" height="512.000000pt" viewBox="0 0 512.000000 512.000000"
 preserveAspectRatio="xMidYMid meet">

<g transform="translate(0.000000,512.000000) scale(0.100000,-0.100000)"
fill="rgb(54, 119, 147)" stroke="none">
<path d="M170 5107 c-14 -7 -33 -28 -43 -47 -16 -33 -17 -139 -15 -1903 l3
-1869 33 -29 32 -29 803 0 803 0 23 -71 c160 -497 687 -909 1446 -1130 129
-38 137 -37 373 40 615 201 1072 546 1261 952 84 181 115 321 116 529 0 165
-16 245 -72 369 -47 104 -103 179 -254 336 -153 160 -179 205 -179 305 0 108
80 274 237 494 62 86 72 116 55 158 -13 31 -452 467 -475 470 -37 6 -71 -8
-138 -57 -218 -162 -481 -187 -650 -62 -15 11 -42 39 -59 63 -56 79 -121 76
-192 -8 -66 -79 -141 -117 -255 -132 l-53 -7 -2 790 -3 791 -28 27 -27 28
-1358 2 c-1072 2 -1362 0 -1382 -10z m2590 -886 l0 -700 -37 15 c-21 9 -81 45
-134 80 -151 101 -128 110 -401 -163 -150 -151 -227 -236 -230 -253 -6 -42 8
-76 70 -162 75 -105 160 -252 197 -343 21 -53 29 -87 29 -140 1 -95 -27 -144
-176 -301 -239 -254 -328 -451 -328 -726 l0 -98 -715 0 -715 0 0 1745 0 1745
1220 0 1220 0 0 -699z m-225 -816 c133 -80 289 -125 433 -125 146 0 248 30
354 103 l57 39 38 -30 c126 -99 334 -137 529 -97 84 18 215 71 286 117 26 16
52 28 57 26 5 -1 68 -65 140 -140 l132 -137 -59 -89 c-76 -116 -155 -270 -180
-354 -31 -100 -36 -172 -18 -256 24 -115 65 -179 215 -336 148 -156 180 -195
221 -277 45 -89 61 -167 61 -298 -1 -271 -79 -475 -267 -696 -204 -240 -586
-470 -1004 -603 -153 -49 -150 -49 -296 -1 -822 267 -1284 733 -1284 1296 0
146 40 283 112 386 12 18 80 92 151 165 146 151 199 226 229 325 52 172 -12
386 -198 662 l-54 80 137 137 c76 76 141 138 144 138 4 0 32 -16 64 -35z"/>
<path d="M590 4599 c-61 -25 -84 -82 -55 -139 32 -62 -7 -60 1007 -60 859 0
925 1 958 18 65 32 77 113 24 163 l-26 24 -941 2 c-609 1 -951 -2 -967 -8z"/>
<path d="M592 4089 c-70 -21 -91 -114 -37 -168 l25 -26 961 0 961 0 30 34 c26
29 29 40 25 73 -7 49 -29 75 -76 88 -47 13 -1843 12 -1889 -1z"/>
<path d="M564 3562 c-54 -43 -55 -112 -3 -157 l31 -25 648 2 648 3 26 24 c45
43 43 105 -5 150 -23 21 -27 21 -673 21 -602 0 -653 -2 -672 -18z"/>
<path d="M573 3058 c-12 -6 -29 -26 -39 -46 -13 -29 -14 -42 -5 -72 22 -74
-14 -70 700 -70 457 0 647 3 665 11 33 15 59 71 51 109 -4 16 -20 41 -37 55
l-30 25 -641 -1 c-431 0 -649 -4 -664 -11z"/>
<path d="M590 2553 c-75 -28 -90 -124 -26 -175 19 -16 73 -18 719 -18 460 0
705 4 718 10 24 13 49 61 49 94 0 14 -13 40 -29 58 l-29 33 -694 2 c-381 1
-700 -1 -708 -4z"/>
<path d="M590 2039 c-61 -25 -84 -82 -55 -139 31 -60 33 -60 588 -60 278 0
518 3 536 6 101 20 111 158 14 195 -33 12 -1050 11 -1083 -2z"/>
<path d="M2598 3041 l-33 -29 0 -196 0 -196 28 -27 27 -28 738 -3 c405 -1 748
0 760 3 13 3 35 18 48 32 24 26 24 29 24 217 0 205 -3 217 -57 245 -15 8 -236
11 -762 11 l-741 0 -32 -29z m1390 -223 l-3 -53 -607 -3 -608 -2 0 55 0 55
611 0 610 0 -3 -52z"/>
<path d="M3232 2436 c-210 -53 -392 -233 -446 -443 -21 -79 -20 -228 0 -307
40 -157 169 -317 312 -389 394 -197 859 68 889 508 10 150 -51 328 -151 441
-61 69 -165 139 -256 171 -91 32 -261 41 -348 19z m291 -216 c110 -41 203
-140 242 -258 27 -84 18 -209 -21 -292 -57 -121 -179 -211 -311 -230 -285 -39
-520 226 -448 504 38 145 162 266 305 296 65 13 167 5 233 -20z"/>
<path d="M3544 2040 c-28 -11 -61 -52 -125 -154 l-53 -85 -73 70 c-67 63 -77
69 -116 69 -67 -1 -114 -52 -103 -114 5 -24 38 -64 134 -159 117 -115 132
-127 165 -127 19 0 43 3 52 6 29 11 255 361 255 394 0 44 -19 77 -55 95 -37
17 -50 18 -81 5z"/>
<path d="M2630 1117 c-60 -21 -70 -55 -70 -247 0 -192 10 -226 70 -247 46 -16
1426 -18 1482 -3 20 6 46 22 58 37 19 24 20 39 20 214 l0 189 -29 32 -29 33
-734 2 c-551 2 -742 -1 -768 -10z m1360 -247 l0 -50 -610 0 -610 0 0 50 0 50
610 0 610 0 0 -50z"/>
</g>
</svg>
